Coordinates
version=1
nRows=8
nColumns=42
inDegrees=yes

Units are S.I. units (second, meters, Newtons, ...)
If the header above contains a line with 'inDegrees', this indicates whether rotational values are in degrees (yes) or radians (no).

endheader
time	pelvis_tilt	pelvis_list	pelvis_rotation	pelvis_tx	pelvis_ty	pelvis_tz	hip_flexion_r	hip_adduction_r	hip_rotation_r	knee_angle_r	knee_adduction_r	knee_angle_r_beta	ankle_angle_r	subtalar_angle_r	mtp_angle_r	hip_flexion_l	hip_adduction_l	hip_rotation_l	knee_angle_l	knee_adduction_l	knee_angle_l_beta	ankle_angle_l	subtalar_angle_l	mtp_angle_l	lumbar_extension	lumbar_bending	lumbar_rotation	arm_flex_r	arm_add_r	arm_rot_r	elbow_flex_r	pro_sup_r	wrist_flex_r	wrist_dev_r	arm_flex_l	arm_add_l	arm_rot_l	elbow_flex_l	pro_sup_l	wrist_flex_l	wrist_dev_l
      0.00000000	      3.11657337	     -4.05021357	     -0.19315841	     -1.06840406	      0.94382509	     -0.25816661	     23.23584085	      4.61038665	    -13.21380617	     17.42917448	     -3.51754361	      0.30419648	      0.57466060	      2.26385245	     -9.21607340	    -19.85985543	     -3.31984327	     -0.34923541	     21.43993335	      0.85008789	      0.37419743	      8.83115485	     -4.81109947	     -9.21607340	    -14.52435084	      6.33220286	      0.02368901	    -10.93993564	    -10.20943035	    -10.86007291	     24.57651889	     90.00000001	      0.00000000	      0.00000000	     12.63410617	    -10.91520661	     16.14091609	     45.63205418	     90.00000001	      0.00000000	      0.00000000
      0.01000000	      3.24749124	     -4.55741343	     -0.20309803	     -1.05241414	      0.94440949	     -0.25694115	     23.01810995	      5.40999635	    -12.17410463	     19.08287364	     -3.70520801	      0.33305898	     -0.09827161	      0.92698482	     -9.14001209	    -19.21705965	     -4.07118835	     -0.68617153	     24.56614675	      1.01335074	      0.42876015	      6.28810839	     -5.90327281	     -9.14001209	    -14.59954820	      7.09273018	      0.23877811	    -10.78691727	    -10.22174874	    -11.37437037	     24.27160839	     90.00000001	      0.00000000	      0.00000000	     12.41970936	    -10.31472426	     15.11642381	     45.23950592	     90.00000001	      0.00000000	      0.00000000
      0.02000000	      3.34640060	     -5.05230327	     -0.25520446	     -1.03674283	      0.94543733	     -0.25554025	     22.61165100	      6.25189548	    -10.47803727	     20.39588724	     -3.59802623	      0.35597539	     -0.94436570	     -1.55984417	     -9.02858595	    -18.26623961	     -4.84972326	     -1.19316636	     27.96422462	      1.15586382	      0.48806779	      3.36039462	     -7.06532359	     -9.02858595	    -14.69015170	      7.79974241	      0.51695526	    -10.59660558	    -10.20057939	    -11.91787665	     24.05369486	     90.00000001	      0.00000000	      0.00000000	     12.17391743	     -9.72346495	     14.01994739	     44.85307992	     90.00000001	      0.00000000	      0.00000000
      0.03000000	      3.80302887	     -5.57876711	     -0.18920895	     -1.02077933	      0.94716322	     -0.25426072	     21.78427543	      7.03838372	     -9.82169838	     21.65096010	     -3.69922157	      0.37788054	     -0.95853056	     -2.18838088	     -9.00540171	    -17.56325203	     -5.67767487	     -1.90857604	     31.35017732	      1.06554248	      0.54716382	      0.18048673	     -7.95382277	     -9.00540171	    -15.14328462	      8.53534854	      0.78731972	    -10.50143222	    -10.21992208	    -12.11556217	     24.06499390	     90.00000001	      0.00000000	      0.00000000	     11.89232478	     -9.22770899	     13.18579257	     44.59613696	     90.00000001	      0.00000000	      0.00000000
      0.04000000	      3.63742961	     -6.09372436	     -0.33546824	     -1.00580920	      0.94855439	     -0.25256627	     21.34785048	      7.97428312	     -7.65299942	     22.39687776	     -3.31512973	      0.39089926	     -1.93944202	     -5.56378856	     -8.87293621	    -15.87170434	     -6.57463997	     -2.49691663	     35.07600455	      1.20605111	      0.61219177	     -2.94565357	     -9.64033502	     -8.87293621	    -15.02686431	      9.19964486	      1.19848735	    -10.26561780	    -10.16274391	    -12.62766126	     23.98851330	     90.00000001	      0.00000000	      0.00000000	     11.55178067	     -8.60089154	     11.84431618	     44.27162512	     90.00000001	      0.00000000	      0.00000000
      0.05000000	      3.77610790	     -6.59729861	     -0.29101711	     -0.99063188	      0.95046441	     -0.25112689	     20.61106230	      8.75690904	     -7.07749905	     23.12511142	     -3.33774338	      0.40360933	     -1.77138391	     -6.26235525	     -8.82901400	    -14.38079894	     -7.49118374	     -3.21899733	     38.65949639	      1.06632039	      0.67473550	     -5.84195566	    -10.96440169	     -8.82901400	    -15.19610174	      9.85443403	      1.49802353	    -10.11029588	    -10.13787884	    -12.80992965	     24.12028446	     90.00000001	      0.00000000	      0.00000000	     11.18063536	     -8.06312571	     10.69317122	     44.05222036	     90.00000001	      0.00000000	      0.00000000
      0.06000000	      3.80822319	     -6.93800003	     -0.23641434	     -0.97591437	      0.95249281	     -0.24979120	     19.84047033	      9.33177524	     -6.37941148	     23.56767531	     -3.22651013	      0.41133353	     -1.53222521	     -7.34384097	     -8.77191381	    -12.59012427	     -8.21073253	     -3.91355911	     42.15923139	      0.75181814	      0.73581740	     -8.44669612	    -12.50184052	     -8.77191381	    -15.28136870	     10.31432857	      1.76822218	     -9.91033311	    -10.07349444	    -12.98026836	     24.29458231	     90.00000001	      0.00000000	      0.00000000	     10.80577016	     -7.58957325	      9.60910062	     43.87427742	     90.00000001	      0.00000000	      0.00000000
      0.07000000	      3.89176847	     -7.24185481	     -0.21031822	     -0.96137222	      0.95479042	     -0.24852225	     18.88377315	      9.85607530	     -6.06494028	     23.73075948	     -3.23179919	      0.41417989	     -1.06022351	     -7.75164070	     -8.72229284	    -10.76856607	     -8.87132576	     -4.82118662	     45.42303216	      0.21121571	      0.79278147	    -10.49623923	    -13.82491896	     -8.72229284	    -15.44263570	     10.71388406	      2.10620330	     -9.71339944	    -10.03760848	    -13.05373236	     24.57197373	     90.00000001	      0.00000000	      0.00000000	     10.40073591	     -7.15085463	      8.66080363	     43.78643824	     90.00000001	      0.00000000	      0.00000000
